<?xml version="1.0" encoding="UTF-8" standalone="no"?><!-- Generator: Gravit.io --><svg xmlns="http://www.w3.org/2000/svg" xmlns:xlink="http://www.w3.org/1999/xlink" style="isolation:isolate" viewBox="0 0 500 300" width="500pt" height="300pt"><path d=" M 92.558 168.677 L 95.743 173.595 L 95.743 173.595 Q 97.846 145.354 126.23 126.472 L 126.23 126.472 L 126.23 126.472 Q 145.469 113.672 163.822 112.756 L 163.822 112.756 L 163.822 112.756 Q 182.174 111.84 197.387 121.687 L 197.387 121.687 L 197.387 121.687 Q 207.884 128.452 215.736 140.578 L 215.736 140.578 L 215.736 140.578 Q 230.773 163.799 222.886 189.669 L 222.886 189.669 L 222.886 189.669 Q 219.597 200.859 211.717 211.257 L 211.717 211.257 L 211.717 211.257 Q 203.837 221.654 191.843 229.634 L 191.843 229.634 L 191.843 229.634 Q 157.877 252.23 124.54 237.746 L 124.54 237.746 L 124.54 237.746 Q 96.141 225.378 71.548 187.4 L 71.548 187.4 L 71.548 187.4 Q 61.326 171.614 55.145 156.822 L 55.145 156.822 L 55.145 156.822 Q 48.965 142.029 46.731 127.558 L 46.731 127.558 L 46.731 127.558 Q 44.496 113.086 47.817 99.584 L 47.817 99.584 L 47.817 99.584 Q 51.138 86.081 59.947 74.493 L 59.947 74.493 L 59.947 74.493 Q 67.136 65.127 78.774 57.385 L 78.774 57.385 L 78.774 57.385 Q 95.401 46.324 112.345 44.544 L 112.345 44.544 L 112.345 44.544 Q 129.289 42.765 143.956 48.883 L 143.956 48.883 L 143.956 48.883 Q 154.292 53.3 162.518 62.067 L 162.518 62.067 L 143.301 83.035 L 143.301 83.035 Q 135.64 73.565 125.799 70.046 L 125.799 70.046 L 125.799 70.046 Q 115.959 66.526 105.26 68.898 L 105.26 68.898 L 105.26 68.898 Q 98.227 70.631 91.457 75.134 L 91.457 75.134 L 91.457 75.134 Q 81.363 81.85 76.229 90.585 L 76.229 90.585 L 76.229 90.585 Q 71.095 99.319 70.434 108.27 L 70.434 108.27 L 70.434 108.27 Q 69.773 117.221 72.782 127.903 L 72.782 127.903 L 72.782 127.903 Q 75.791 138.586 80.619 148.14 L 80.619 148.14 L 80.619 148.14 Q 85.447 157.695 92.558 168.677 L 92.558 168.677 Z  M 179.605 211.261 L 179.605 211.261 L 179.605 211.261 Q 191.125 203.597 195.83 193.02 L 195.83 193.02 L 195.83 193.02 Q 200.535 182.443 198.661 171.414 L 198.661 171.414 L 198.661 171.414 Q 197.303 163.806 192.711 156.714 L 192.711 156.714 L 192.711 156.714 Q 185.452 145.504 174.655 141.557 L 174.655 141.557 L 174.655 141.557 Q 163.858 137.61 152.254 140.42 L 152.254 140.42 L 152.254 140.42 Q 144.671 142.355 137.902 146.858 L 137.902 146.858 L 137.902 146.858 Q 130.182 151.994 125.384 158.623 L 125.384 158.623 L 125.384 158.623 Q 120.586 165.252 119.074 172.232 L 119.074 172.232 L 119.074 172.232 Q 117.562 179.212 118.89 186.511 L 118.89 186.511 L 118.89 186.511 Q 120.129 194.198 125.018 201.748 L 125.018 201.748 L 125.018 201.748 Q 132.203 212.844 142.614 216.72 L 142.614 216.72 L 142.614 216.72 Q 153.026 220.596 164.466 218.059 L 164.466 218.059 L 164.466 218.059 Q 172.123 216.238 179.605 211.261 Z " fill="rgb(0,0,0)"/><path d=" M 142.393 149.251 L 142.393 149.251 L 142.393 149.251 Q 146.495 181.067 179.519 189.382 L 179.519 189.382 L 173.937 215.351 L 173.937 215.351 Q 157.389 210.376 145.064 199.731 L 145.064 199.731 L 145.064 199.731 Q 132.738 189.085 126.031 172.772 L 126.031 172.772 L 126.031 172.772 Q 121.792 162.619 120.291 150.982 L 120.291 150.982 L 120.291 150.982 Q 117.234 127.268 125.247 109.329 L 125.247 109.329 L 125.247 109.329 Q 133.26 91.39 149.266 81.344 L 149.266 81.344 L 149.266 81.344 Q 160.64 74.323 176.196 72.684 L 176.196 72.684 L 176.196 72.684 Q 185.695 71.683 194.289 72.868 L 194.289 72.868 L 194.289 72.868 Q 202.883 74.053 209.643 76.7 L 209.643 76.7 L 209.643 76.7 Q 216.403 79.347 222.809 84.122 L 222.809 84.122 L 222.809 84.122 Q 229.215 88.896 233.988 93.992 L 233.988 93.992 L 233.988 93.992 Q 238.761 99.088 243.594 106.267 L 243.594 106.267 L 243.594 106.267 Q 248.426 113.447 251.955 119.719 L 251.955 119.719 L 251.955 119.719 Q 255.485 125.991 259.615 134.215 L 259.615 134.215 L 259.615 134.215 Q 268.653 152.373 274.558 159.215 L 274.558 159.215 L 274.558 159.215 Q 287.347 173.992 306.914 172.08 L 306.914 172.08 L 307.877 171.979 L 293.75 62.39 L 316.051 60.041 L 337.977 189.687 L 317.875 199.74 L 317.875 199.74 Q 304.934 201.103 294.152 199.178 L 294.152 199.178 L 294.152 199.178 Q 283.369 197.254 274.841 192.255 L 274.841 192.255 L 274.841 192.255 Q 266.313 187.256 259.829 180.25 L 259.829 180.25 L 259.829 180.25 Q 253.344 173.245 247.648 163.692 L 247.648 163.692 L 247.648 163.692 Q 243.864 157.074 240.337 150.28 L 240.337 150.28 L 235.154 140.375 L 235.154 140.375 Q 231.081 132.593 227.665 127.204 L 227.665 127.204 L 227.665 127.204 Q 224.25 121.816 219.116 116.087 L 219.116 116.087 L 219.116 116.087 Q 213.982 110.357 208.473 107.13 L 208.473 107.13 L 208.473 107.13 Q 202.964 103.904 195.286 102.249 L 195.286 102.249 L 195.286 102.249 Q 187.608 100.595 178.522 101.552 L 178.522 101.552 L 178.522 101.552 Q 164.756 103.002 155.718 110.822 L 155.718 110.822 L 155.718 110.822 Q 146.68 118.642 143.48 130.624 L 143.48 130.624 L 143.48 130.624 Q 141.064 138.94 142.393 149.251 Z " fill="rgb(0,0,0)"/><path d=" M 378.01 143.222 L 378.01 143.222 L 378.01 143.222 Q 364.553 144.65 355.415 151.638 L 355.415 151.638 L 355.415 151.638 Q 346.277 158.627 342.43 169.242 L 342.43 169.242 L 318.911 168.334 L 322.278 60.678 L 424.889 49.793 L 427.126 70.885 L 344.96 79.601 L 343.206 134.614 L 343.206 134.614 Q 357.275 122.915 377.461 120.774 L 377.461 120.774 L 377.461 120.774 Q 399.329 118.454 415.957 126.57 L 415.957 126.57 L 415.957 126.57 Q 432.586 134.685 441.964 150.309 L 441.964 150.309 L 441.964 150.309 Q 448.79 161.623 450.438 177.15 L 450.438 177.15 L 450.438 177.15 Q 452.84 199.795 443.375 216.043 L 443.375 216.043 L 443.375 216.043 Q 433.911 232.292 415.937 240.479 L 415.937 240.479 L 415.937 240.479 Q 404.213 245.91 390.497 247.365 L 390.497 247.365 L 390.497 247.365 Q 367.205 249.836 350.092 240.856 L 350.092 240.856 L 350.092 240.856 Q 336.943 237.605 327.761 220.129 L 323.798 214.399 L 345.317 201.387 L 345.317 201.387 Q 350.844 214.017 361.876 220.567 L 361.876 220.567 L 361.876 220.567 Q 372.908 227.117 388.177 225.497 L 388.177 225.497 L 388.177 225.497 Q 397.752 224.481 405.194 220.617 L 405.194 220.617 L 405.194 220.617 Q 412.635 216.752 417.262 211.028 L 417.262 211.028 L 417.262 211.028 Q 421.888 205.303 424.225 197.727 L 424.225 197.727 L 424.225 197.727 Q 426.65 189.749 425.593 179.786 L 425.593 179.786 L 425.593 179.786 Q 424.015 164.905 415.732 155.905 L 415.732 155.905 L 415.732 155.905 Q 407.45 146.904 394.718 144.067 L 394.718 144.067 L 394.718 144.067 Q 386.68 142.303 378.01 143.222 Z " fill="rgb(0,0,0)"/></svg>